<?xml version="1.0" encoding="UTF-8" standalone="no"?>
<svg
   xmlns:osb="http://www.openswatchbook.org/uri/2009/osb"
   xmlns:dc="http://purl.org/dc/elements/1.1/"
   xmlns:cc="http://creativecommons.org/ns#"
   xmlns:rdf="http://www.w3.org/1999/02/22-rdf-syntax-ns#"
   xmlns:svg="http://www.w3.org/2000/svg"
   xmlns="http://www.w3.org/2000/svg"
   xmlns:sodipodi="http://sodipodi.sourceforge.net/DTD/sodipodi-0.dtd"
   xmlns:inkscape="http://www.inkscape.org/namespaces/inkscape"
   width="15.000001mm"
   height="15.000001mm"
   viewBox="0 0 15.000001 15.000001"
   version="1.1"
   id="svg8"
   sodipodi:docname="gulp-tron-inverse.svg"
   inkscape:export-filename="D:\dev\pub\artworks\src\logo\gulp-tron\gulp-tron.png"
   inkscape:export-xdpi="96"
   inkscape:export-ydpi="96"
   inkscape:version="1.0.1 (3bc2e813f5, 2020-09-07)">
  <defs
     id="defs2">
    <linearGradient
       id="linearGradient847"
       osb:paint="solid">
      <stop
         style="stop-color:#000000;stop-opacity:1;"
         offset="0"
         id="stop845" />
    </linearGradient>
  </defs>
  <sodipodi:namedview
     id="base"
     pagecolor="#ffffff"
     bordercolor="#666666"
     borderopacity="1.0"
     inkscape:pageopacity="0.0"
     inkscape:pageshadow="2"
     inkscape:zoom="16.430625"
     inkscape:cx="17.814257"
     inkscape:cy="43.359005"
     inkscape:document-units="mm"
     inkscape:current-layer="layer4"
     inkscape:document-rotation="0"
     showgrid="false"
     inkscape:snap-text-baseline="true"
     showborder="true"
     inkscape:window-width="2531"
     inkscape:window-height="2063"
     inkscape:window-x="1291"
     inkscape:window-y="0"
     inkscape:window-maximized="0"
     inkscape:pagecheckerboard="true" />
  <metadata
     id="metadata5">
    <rdf:RDF>
      <cc:Work
         rdf:about="">
        <dc:format>image/svg+xml</dc:format>
        <dc:type
           rdf:resource="http://purl.org/dc/dcmitype/StillImage" />
        <dc:title></dc:title>
      </cc:Work>
    </rdf:RDF>
  </metadata>
  <g
     inkscape:groupmode="layer"
     id="layer4"
     inkscape:label="Circle"
     transform="translate(4.3197351,-2.4852183)"
     style="display:inline">
    <path
       id="path843"
       style="display:inline;fill:#ffffff;fill-opacity:1;stroke:#285880;stroke-width:0;stroke-miterlimit:4;stroke-dasharray:none;stroke-opacity:1"
       d="M 28.142578 0 A 28.346457 28.346457 0 0 0 0 28.345703 A 28.346457 28.346457 0 0 0 28.345703 56.693359 A 28.346457 28.346457 0 0 0 56.693359 28.345703 A 28.346457 28.346457 0 0 0 28.345703 0 A 28.346457 28.346457 0 0 0 28.142578 0 z M 43.400391 10.738281 C 43.502438 10.723163 43.584248 10.742702 43.646484 10.796875 C 43.725854 10.849284 43.773882 10.923342 43.791016 11.017578 C 43.890795 11.567676 43.461512 12.41704 42.5 13.568359 C 41.552498 14.701336 40.43214 15.369696 39.140625 15.570312 C 38.188965 15.718218 36.143459 15.517424 33.003906 14.970703 C 29.878489 14.405739 27.269916 14.286742 25.179688 14.611328 C 23.548292 14.864733 21.969948 15.449077 20.441406 16.365234 C 18.929898 17.278771 17.509098 18.501537 16.179688 20.033203 C 14.875715 21.512435 13.921834 22.953037 13.320312 24.355469 C 12.73293 25.739557 12.537452 26.974096 12.734375 28.058594 C 12.899893 28.970191 13.319025 29.681246 13.988281 30.191406 C 14.65467 30.685844 15.40364 30.867617 16.236328 30.738281 C 18.12264 30.445267 19.806064 29.036569 21.287109 26.511719 C 22.78229 23.968525 23.313779 21.510035 22.882812 19.136719 C 22.842751 18.91675 22.792957 18.682513 22.730469 18.433594 C 22.664957 18.169052 22.626573 18.006251 22.615234 17.943359 C 22.583738 17.770509 22.591491 17.62257 22.640625 17.501953 C 22.688499 17.38126 22.746422 17.316971 22.814453 17.306641 C 23.086352 17.26431 23.456036 17.707031 23.921875 18.636719 C 24.404722 19.563686 24.75275 20.616138 24.966797 21.794922 C 25.412 24.246827 24.920168 26.449398 23.492188 28.400391 C 22.081189 30.348737 20.19416 31.50613 17.832031 31.873047 C 16.285597 32.113173 14.952986 31.899181 13.835938 31.232422 C 12.718891 30.565562 12.040514 29.572192 11.800781 28.251953 C 11.589581 27.088867 11.801057 25.74694 12.433594 24.226562 C 13.063263 22.690463 14.034351 21.165641 15.349609 19.652344 C 17.080636 17.638108 19.065544 16.012027 21.304688 14.775391 C 23.540983 13.523057 25.9773 12.69235 28.611328 12.283203 C 30.531605 11.984923 32.798049 11.908911 35.410156 12.052734 C 38.022263 12.196356 39.642722 12.218606 40.271484 12.121094 C 41.342099 11.954795 42.267776 11.569026 43.048828 10.962891 C 43.232765 10.821284 43.349493 10.746344 43.400391 10.738281 z M 39.380859 16.09375 C 39.400197 16.095287 39.390636 16.109043 39.34375 16.140625 C 40.904755 16.543648 42.132894 17.160991 43.027344 17.990234 C 43.932895 18.801625 44.496475 19.818856 44.71875 21.042969 C 45.05786 22.910519 44.51457 24.722005 43.087891 26.476562 C 41.66114 28.231131 39.515497 29.694363 36.652344 30.865234 C 37.44991 31.160907 38.114998 31.703068 38.644531 32.492188 C 39.171141 33.265615 39.543192 34.248693 39.759766 35.441406 C 39.97919 36.649827 40.014955 38.151573 39.869141 39.949219 C 39.734068 41.729059 39.699028 42.791463 39.761719 43.136719 C 39.798758 43.340775 39.864666 43.508127 39.958984 43.638672 C 40.053321 43.753116 40.154741 43.802391 40.265625 43.785156 C 40.641204 43.7268 41.634466 42.30522 43.246094 39.521484 C 43.9096 38.36956 44.445058 37.455621 44.851562 36.779297 C 45.976933 34.861776 47.001315 33.331242 47.923828 32.1875 C 48.843489 31.028054 49.504725 30.418141 49.908203 30.355469 C 49.951127 30.348666 50.022707 30.352662 50.125 30.369141 C 50.225078 30.36936 50.304699 30.374434 50.363281 30.380859 C 49.250703 31.344355 47.447073 34.051818 44.951172 38.505859 C 44.550072 39.213568 44.247461 39.752419 44.042969 40.123047 C 42.743785 42.422572 41.743662 43.934534 41.044922 44.65625 C 40.35728 45.360093 39.611643 45.775046 38.804688 45.900391 C 37.81681 46.053839 36.961056 45.837812 36.240234 45.255859 C 35.533228 44.671817 35.077166 43.807748 34.869141 42.662109 C 34.621219 41.296751 34.858969 39.421037 35.583984 37.033203 C 36.30628 34.62965 36.593496 33.019204 36.445312 32.203125 C 36.394017 31.920605 36.311942 31.706666 36.201172 31.5625 C 36.088973 31.418576 35.92618 31.307999 35.710938 31.228516 C 35.568653 31.234941 35.371478 31.255879 35.121094 31.294922 C 33.960603 31.442815 33.343656 31.314431 33.269531 30.90625 C 33.238199 30.733639 33.287688 30.5712 33.417969 30.421875 C 33.548264 30.272546 33.731955 30.179353 33.96875 30.142578 C 34.191236 30.108184 34.54985 30.150337 35.042969 30.267578 C 35.533587 30.368832 35.888843 30.40177 36.111328 30.367188 C 37.447031 30.159858 38.643968 28.949862 39.701172 26.736328 C 40.769549 24.504929 41.101919 22.273432 40.697266 20.044922 C 40.534834 19.150379 40.238612 18.431457 39.810547 17.884766 C 39.396068 17.335931 38.834888 16.962254 38.126953 16.765625 C 37.724045 16.71953 39.245496 16.082989 39.380859 16.09375 z M 34.509766 16.798828 C 34.567844 16.805946 34.616565 16.822081 34.65625 16.847656 C 34.73562 16.900066 34.786799 16.997318 34.8125 17.138672 C 34.846768 17.327144 34.746301 17.641464 34.511719 18.082031 C 34.291246 18.504129 34.139172 18.86785 34.054688 19.171875 C 33.766965 20.089242 33.590762 21.852535 33.523438 24.464844 C 33.474556 26.023874 33.42489 27.244597 33.375 28.125 C 33.032928 32.880855 31.389376 36.77957 28.447266 39.822266 C 25.519291 42.846593 21.575448 44.744853 16.613281 45.515625 C 13.673361 45.972268 11.319429 45.853208 9.5507812 45.158203 C 7.7821338 44.463299 6.7386624 43.242677 6.421875 41.498047 C 6.2021081 40.287817 6.4516353 39.207771 7.1699219 38.255859 C 7.9023338 37.285579 8.8967598 36.703138 10.154297 36.507812 C 11.020978 36.373262 11.776364 36.488792 12.419922 36.857422 C 13.077618 37.207759 13.467122 37.720654 13.589844 38.396484 C 13.704011 39.025171 13.622667 39.588463 13.345703 40.083984 C 13.065895 40.563783 12.668637 40.867111 12.150391 40.996094 C 12.068274 41.02507 11.958203 41.0511 11.822266 41.072266 C 9.8766803 41.519913 8.9868156 42.199731 9.1523438 43.111328 C 9.280772 43.818604 9.9478636 44.361702 11.152344 44.740234 C 12.373819 45.116146 13.78345 45.179804 15.380859 44.931641 C 17.029263 44.675615 18.540444 44.101406 19.916016 43.208984 C 21.291612 42.316588 22.485839 41.145391 23.498047 39.695312 C 24.688396 37.97515 25.689645 35.460501 26.503906 32.150391 C 27.33515 28.837635 27.895745 26.769628 28.183594 25.949219 C 29.030309 23.587518 30.109875 21.497577 31.421875 19.677734 C 32.750883 17.855246 33.711844 16.897083 34.306641 16.804688 C 34.383113 16.793349 34.451687 16.79171 34.509766 16.798828 z "
       transform="matrix(0.26458333,0,0,0.26458333,-4.3197351,2.4852183)" />
  </g>
</svg>
