<?xml version="1.0" encoding="UTF-8" standalone="no"?>
<svg
   xmlns:osb="http://www.openswatchbook.org/uri/2009/osb"
   xmlns:dc="http://purl.org/dc/elements/1.1/"
   xmlns:cc="http://creativecommons.org/ns#"
   xmlns:rdf="http://www.w3.org/1999/02/22-rdf-syntax-ns#"
   xmlns:svg="http://www.w3.org/2000/svg"
   xmlns="http://www.w3.org/2000/svg"
   xmlns:sodipodi="http://sodipodi.sourceforge.net/DTD/sodipodi-0.dtd"
   xmlns:inkscape="http://www.inkscape.org/namespaces/inkscape"
   width="15mm"
   height="12mm"
   viewBox="0 0 15 12"
   version="1.1"
   id="svg8"
   sodipodi:docname="gulp-tron-text.svg"
   inkscape:export-filename="D:\dev\pub\artworks\src\logo\gulp-tron\gulp-tron.png"
   inkscape:export-xdpi="96"
   inkscape:export-ydpi="96"
   inkscape:version="1.0.1 (3bc2e813f5, 2020-09-07)">
  <defs
     id="defs2">
    <linearGradient
       id="linearGradient847"
       osb:paint="solid">
      <stop
         style="stop-color:#000000;stop-opacity:1;"
         offset="0"
         id="stop845" />
    </linearGradient>
  </defs>
  <sodipodi:namedview
     id="base"
     pagecolor="#ffffff"
     bordercolor="#666666"
     borderopacity="1.0"
     inkscape:pageopacity="0.0"
     inkscape:pageshadow="2"
     inkscape:zoom="22.154444"
     inkscape:cx="28.346496"
     inkscape:cy="28.346518"
     inkscape:document-units="mm"
     inkscape:current-layer="layer2"
     inkscape:document-rotation="0"
     showgrid="false"
     inkscape:snap-text-baseline="true"
     showborder="true"
     inkscape:window-width="2070"
     inkscape:window-height="2063"
     inkscape:window-x="930"
     inkscape:window-y="0"
     inkscape:window-maximized="0" />
  <metadata
     id="metadata5">
    <rdf:RDF>
      <cc:Work
         rdf:about="">
        <dc:format>image/svg+xml</dc:format>
        <dc:type
           rdf:resource="http://purl.org/dc/dcmitype/StillImage" />
        <dc:title />
      </cc:Work>
    </rdf:RDF>
  </metadata>
  <g
     inkscape:groupmode="layer"
     id="layer3"
     inkscape:label="R"
     style="display:inline"
     transform="translate(-1.4673524,-10.887343)" />
  <g
     inkscape:groupmode="layer"
     id="layer2"
     inkscape:label="T"
     transform="translate(-101.55264,-106.23839)"
     style="display:inline">
    <g
       id="g863"
       transform="matrix(0.55081296,0,0,0.42015137,45.616128,61.602182)"
       inkscape:export-xdpi="96"
       inkscape:export-ydpi="96">
      <g
         inkscape:label="Clip"
         id="use895-2"
         transform="matrix(5.0790768,-1.0342626,0.7898784,5.7028219,-566.59827,-403.07793)"
         style="display:inline;fill:#004b66;fill-opacity:1">
        <g
           aria-label="R"
           transform="matrix(0.87138247,0,0,1.1476017,5.0620598,8.0262562)"
           id="text921-2"
           style="font-style:normal;font-variant:normal;font-weight:normal;font-stretch:normal;font-size:5.97471px;line-height:1.25;font-family:'CommercialScript BT';-inkscape-font-specification:'CommercialScript BT, Normal';font-variant-ligatures:normal;font-variant-caps:normal;font-variant-numeric:normal;font-variant-east-asian:normal;white-space:pre;inline-size:6.13066;display:inline;fill:#004b66;fill-opacity:1;stroke:none;stroke-width:0.54938">
          <path
             d="m 129.86718,90.182794 c 0.20227,0.0778 0.35397,0.175041 0.4551,0.291734 0.10308,0.114749 0.15462,0.247974 0.15462,0.399676 0,0.231442 -0.11864,0.439545 -0.35591,0.62431 -0.23728,0.184765 -0.56499,0.320907 -0.98314,0.408428 0.10113,0.05057 0.17796,0.128362 0.23047,0.233387 0.0525,0.103079 0.0788,0.228525 0.0788,0.376336 0,0.149757 -0.0321,0.331605 -0.0963,0.545543 -0.0623,0.211993 -0.0934,0.339384 -0.0934,0.382171 0,0.02529 0.005,0.04668 0.0146,0.06418 0.01,0.01556 0.0224,0.02334 0.0379,0.02334 0.0525,0 0.22271,-0.152674 0.51053,-0.458022 0.11864,-0.126418 0.21394,-0.22658 0.2859,-0.300486 0.20033,-0.210048 0.37731,-0.375364 0.53096,-0.495947 0.15365,-0.122529 0.25867,-0.183793 0.31507,-0.183793 0.006,0 0.0157,0.0019 0.0292,0.0058 0.0136,0.0019 0.0243,0.0039 0.0321,0.0058 -0.17504,0.0953 -0.48719,0.388006 -0.93646,0.878119 -0.072,0.07779 -0.12642,0.137114 -0.16337,0.177957 -0.23339,0.252836 -0.40648,0.416207 -0.51929,0.490113 -0.11086,0.07196 -0.22269,0.107942 -0.33549,0.107942 -0.13809,0 -0.24895,-0.04181 -0.33258,-0.125446 -0.0817,-0.08363 -0.12253,-0.196434 -0.12253,-0.338411 0,-0.169206 0.0788,-0.390924 0.23631,-0.665153 0.15753,-0.276175 0.2363,-0.464829 0.2363,-0.565964 0,-0.03501 -0.006,-0.06224 -0.0175,-0.08169 -0.0117,-0.01945 -0.0311,-0.03598 -0.0584,-0.04959 -0.0195,-0.0019 -0.0467,-0.0029 -0.0817,-0.0029 -0.16142,-0.0039 -0.24213,-0.03109 -0.24213,-0.08168 0,-0.02139 0.0107,-0.03987 0.0321,-0.05543 0.0214,-0.01556 0.0486,-0.02334 0.0817,-0.02334 0.0311,0 0.0788,0.01167 0.14295,0.03501 0.0642,0.02139 0.11185,0.03209 0.14295,0.03209 0.18671,0 0.37926,-0.123501 0.57763,-0.370503 0.20033,-0.248946 0.30049,-0.511506 0.30049,-0.787681 0,-0.110859 -0.0224,-0.203241 -0.0671,-0.277147 -0.0428,-0.07391 -0.1099,-0.129336 -0.20129,-0.166289 -0.0613,-0.01497 0.23814,-0.07589 0.18091,-0.05246 z"
             style="font-style:normal;font-variant:normal;font-weight:normal;font-stretch:normal;font-size:5.97471px;font-family:'CommercialScript BT';-inkscape-font-specification:'CommercialScript BT, Normal';font-variant-ligatures:normal;font-variant-caps:normal;font-variant-numeric:normal;font-variant-east-asian:normal;display:inline;fill:#004b66;fill-opacity:1;stroke-width:0.54938"
             id="path1173-1"
             sodipodi:nodetypes="ccscccscscscccscccccscscscccssscscsccc" />
        </g>
      </g>
      <g
         aria-label="T"
         transform="matrix(0.89560472,-0.18237379,0.15040927,1.0859359,0,0)"
         id="text12"
         style="font-style:normal;font-variant:normal;font-weight:normal;font-stretch:normal;font-size:36.0617px;line-height:1.25;font-family:'CommercialScript BT';-inkscape-font-specification:'CommercialScript BT, Normal';font-variant-ligatures:normal;font-variant-caps:normal;font-variant-numeric:normal;font-variant-east-asian:normal;display:inline;fill:#004b66;fill-opacity:1;stroke:none;stroke-width:1.15107;stroke-miterlimit:4;stroke-dasharray:none;stroke-opacity:1">
        <path
           d="m 96.95575,140.09216 q -3.046228,0 -4.701403,-1.0565 -1.655176,-1.05649 -1.655176,-3.01101 0,-1.35583 0.898021,-2.27146 0.915629,-0.93324 2.21864,-0.93324 0.898021,0 1.479093,0.51064 0.59868,0.49303 0.59868,1.25018 0,0.70433 -0.369773,1.19737 -0.369773,0.47542 -0.915629,0.52824 -0.08804,0.0176 -0.228907,0.0176 -2.042557,0.15848 -2.042557,1.17975 0,0.79238 1.144536,1.40866 1.162145,0.61629 2.81732,0.61629 1.708001,0 3.257527,-0.73954 1.549528,-0.73955 2.834928,-2.14821 1.51431,-1.67278 2.94058,-5.14161 1.44387,-3.46882 1.88408,-4.31402 1.2854,-2.42994 2.94058,-4.19076 1.67278,-1.76083 2.28907,-1.76083 0.15848,0 0.22891,0.0704 0.0704,0.0704 0.0704,0.22891 0,0.2113 -0.31695,0.65151 -0.29934,0.42259 -0.4402,0.73954 -0.45782,0.95085 -1.00367,3.78578 -0.33456,1.69039 -0.54586,2.64123 -1.21497,5.12401 -4.73662,7.94133 -3.50404,2.79971 -8.64565,2.79971 z m 2.482763,-9.77258 q -1.60235,0 -2.606021,-0.91563 -1.00367,-0.91563 -1.00367,-2.39472 0,-1.30301 0.915629,-2.85254 0.915629,-1.56713 2.51798,-2.9934 2.112989,-1.90169 4.595749,-2.87015 2.48277,-0.98606 5.21205,-0.98606 1.98973,0 4.59575,0.59868 2.60602,0.59868 3.25753,0.59868 1.10932,0 2.00734,-0.52825 0.2113,-0.12325 0.26412,-0.12325 0.10565,0 0.15848,0.0704 0.0704,0.0704 0.0704,0.17608 0,0.61629 -1.17975,1.708 -1.16215,1.07411 -2.50038,1.07411 -0.98606,0 -4.04989,-1.12693 -3.04623,-1.14454 -5.21205,-1.14454 -1.69039,0 -3.39839,0.73955 -1.69039,0.73954 -3.31035,2.18342 -1.584742,1.39105 -2.447547,2.81732 -0.845196,1.40866 -0.845196,2.62363 0,1.02128 0.581072,1.69039 0.581073,0.65151 1.443877,0.65151 1.954514,0 3.909034,-2.50037 1.97212,-2.51798 1.97212,-5.17683 0,-0.24652 -0.0176,-0.52825 -0.0176,-0.29934 -0.0176,-0.36977 0,-0.19369 0.0704,-0.31695 0.0704,-0.12326 0.14086,-0.12326 0.28174,0 0.58108,1.09171 0.31695,1.09172 0.31695,2.41234 0,2.74688 -1.79605,4.63097 -1.77843,1.88408 -4.225977,1.88408 z"
           style="fill:#004b66;fill-opacity:1;stroke:none;stroke-width:1.15107;stroke-opacity:1"
           id="path855" />
      </g>
    </g>
  </g>
  <g
     inkscape:groupmode="layer"
     id="layer4"
     inkscape:label="Circle"
     transform="translate(-1.4673524,-10.887343)"
     style="display:none">
    <ellipse
       style="display:inline;fill:none;stroke:#000080;stroke-width:2.84388;stroke-miterlimit:4;stroke-dasharray:none;stroke-opacity:1"
       id="path843"
       cx="119.34359"
       cy="121.41451"
       rx="23.57806"
       ry="23.578274"
       transform="translate(-100.08527,-95.351023)" />
  </g>
</svg>
